HIERARCHY
ROOT SpineBase
{
  OFFSET 0.000000 0.000000 0.000000
  CHANNELS 6 Xposition Yposition Zposition Zrotation Xrotation Yrotation
  JOINT SpineMid
  {
    OFFSET 0.000000 30.751771 0.000000
    CHANNELS 3 Zrotation Xrotation Yrotation
    JOINT SpineShoulder
    {
      OFFSET -0.025692 22.964192 -0.960052
      CHANNELS 3 Zrotation Xrotation Yrotation
      JOINT Neck
      {
        OFFSET -0.016267 7.636971 -0.681279
        CHANNELS 3 Zrotation Xrotation Yrotation
        JOINT Head
        {
          OFFSET -4.460738 12.489763 -0.087744
          CHANNELS 3 Zrotation Xrotation Yrotation
          End Site
          {
            OFFSET 0 0 0
          }
        }
      }
      JOINT ShoulderLeft
      {
        OFFSET -16.538950 -2.712973 9.543887
        CHANNELS 3 Zrotation Xrotation Yrotation
        JOINT ElbowLeft
        {
          OFFSET -3.644843 -22.976485 3.823997
          CHANNELS 3 Zrotation Xrotation Yrotation
          JOINT WristLeft
          {
            OFFSET 2.852537 -10.926706 -22.329232
            CHANNELS 3 Zrotation Xrotation Yrotation
            JOINT HandLeft
            {
              OFFSET -2.600350 -2.249370 -3.985249
              CHANNELS 3 Zrotation Xrotation Yrotation
              JOINT HandTipLeft
              {
                OFFSET -2.377024 0.821375 -6.517318
                CHANNELS 3 Zrotation Xrotation Yrotation
                End Site
                {
                  OFFSET 0 0 0
                }
              }
              JOINT ThumbLeft
              {
                OFFSET -4.220144 3.245748 -6.550599
                CHANNELS 3 Zrotation Xrotation Yrotation
                End Site
                {
                  OFFSET 0 0 0
                }
              }
            }
          }
        }
      }
      JOINT ShoulderRight
      {
        OFFSET 13.807366 -2.275656 -7.633742
        CHANNELS 3 Zrotation Xrotation Yrotation
        JOINT ElbowRight
        {
          OFFSET 6.082373 -23.471073 -3.396370
          CHANNELS 3 Zrotation Xrotation Yrotation
          JOINT WristRight
          {
            OFFSET -16.725368 -12.000403 -7.651451
            CHANNELS 3 Zrotation Xrotation Yrotation
            JOINT HandRight
            {
              OFFSET -6.284985 -2.776902 1.269902
              CHANNELS 3 Zrotation Xrotation Yrotation
              JOINT HandTipRight
              {
                OFFSET -7.284616 0.193655 -4.172686
                CHANNELS 3 Zrotation Xrotation Yrotation
                End Site
                {
                  OFFSET 0 0 0
                }
              }
              JOINT ThumbRight
              {
                OFFSET 0.234307 4.170998 -5.007739
                CHANNELS 3 Zrotation Xrotation Yrotation
                End Site
                {
                  OFFSET 0 0 0
                }
              }
            }
          }
        }
      }
    }
  }
  JOINT HipLeft
  {
    OFFSET -6.269910 0.721322 -0.779006
    CHANNELS 3 Zrotation Xrotation Yrotation
    JOINT KneeLeft
    {
      OFFSET -0.692973 -38.079666 -4.001095
      CHANNELS 3 Zrotation Xrotation Yrotation
      JOINT AnkleLeft
      {
        OFFSET -1.952398 -36.493614 -3.661092
        CHANNELS 3 Zrotation Xrotation Yrotation
        JOINT FootLeft
        {
          OFFSET -2.893284 -4.763732 -7.468216
          CHANNELS 3 Zrotation Xrotation Yrotation
          End Site
          {
            OFFSET 0 0 0
          }
        }
      }
    }
  }
  JOINT HipRight
  {
    OFFSET 6.332735 1.549966 -6.167975
    CHANNELS 3 Zrotation Xrotation Yrotation
    JOINT KneeRight
    {
      OFFSET 8.959095 -38.676482 -0.323264
      CHANNELS 3 Zrotation Xrotation Yrotation
      JOINT AnkleRight
      {
        OFFSET 6.546709 -34.377878 4.500985
        CHANNELS 3 Zrotation Xrotation Yrotation
        JOINT FootRight
        {
          OFFSET 0.359401 -6.315536 -4.836797
          CHANNELS 3 Zrotation Xrotation Yrotation
          End Site
          {
            OFFSET 0 0 0
          }
        }
      }
    }
  }
}
MOTION
Frames: 8
Frame Time: 0.033333
-2.567289 80.372796 348.807984 -0.000000 0.000000 23.151852 0.000000 0.000000 -23.151852 -0.000000 0.000000 0.000000 -0.000000 0.000000 0.000000 0.000000 0.000000 0.000000 -0.000000 0.000000 0.000000 -0.000000 0.000000 0.000000 -0.000000 0.000000 0.000000 -0.000000 0.000000 0.000000 0.000000 0.000000 0.000000 0.000000 0.000000 0.000000 -0.000000 0.000000 0.000000 -0.000000 0.000000 0.000000 -0.000000 0.000000 0.000000 -0.000000 0.000000 0.000000 0.000000 0.000000 0.000000 0.000000 0.000000 0.000000 0.000000 0.000000 -23.151852 -0.000000 0.000000 0.000000 -0.000000 0.000000 0.000000 0.000000 0.000000 0.000000 0.000000 0.000000 -23.151852 -0.000000 0.000000 0.000000 -0.000000 0.000000 0.000000 0.000000 0.000000 0.000000
-5.046627 80.282927 347.562735 -0.630701 1.002797 23.116140 0.127806 0.092022 -23.130966 0.066400 0.094356 -0.017728 1.073958 0.532501 0.682261 0.000000 0.000000 0.000000 0.941207 0.787689 -0.197292 -2.696472 -10.354986 2.867015 12.932097 1.090142 -18.236757 -9.914303 0.801304 14.985473 0.000000 0.000000 0.000000 0.000000 0.000000 0.000000 1.221673 -0.601197 0.113680 0.157905 0.178155 -1.765203 -0.196044 -1.043587 2.548328 -0.665676 0.238978 -0.833734 0.000000 0.000000 0.000000 0.000000 0.000000 0.000000 1.233542 -1.743338 -23.204819 1.189589 -1.347107 -0.010619 -1.370055 -1.114830 0.184915 0.000000 0.000000 0.000000 0.693593 -0.048221 -22.818500 3.359716 -4.539668 -0.295324 -5.479474 11.728990 2.451646 0.000000 0.000000 0.000000
-7.336160 80.214640 346.421692 -1.109358 1.920266 23.072666 0.235680 0.177215 -23.087290 0.115208 0.177747 -0.029305 1.879211 1.075086 1.326914 0.000000 0.000000 0.000000 1.713829 1.331093 -0.346521 -4.832521 -20.277929 4.910434 21.996073 -1.641670 -34.116250 -16.937371 -0.134590 27.488980 0.000000 0.000000 0.000000 0.000000 0.000000 0.000000 2.280495 -1.096875 0.247835 0.238933 0.275606 -3.352175 -0.399409 -1.935588 4.673911 -1.734669 0.778959 -0.591203 0.000000 0.000000 0.000000 0.000000 0.000000 0.000000 2.181226 -3.301827 -23.182364 2.519209 -2.534984 0.001656 -2.850523 -1.700478 0.270438 0.000000 0.000000 0.000000 1.389724 0.552149 -22.343771 5.981049 -8.937361 -0.407101 -10.805139 21.817631 5.632719 0.000000 0.000000 0.000000
-9.435887 80.167937 345.384854 -1.437735 2.754272 23.019365 0.323958 0.254564 -23.024536 0.146987 0.249180 -0.035663 2.419545 1.625655 1.926587 0.000000 0.000000 0.000000 2.330205 1.707479 -0.462049 -6.531706 -29.444689 6.172609 26.707746 -5.356209 -45.261927 -19.236575 -1.622816 35.979744 0.000000 0.000000 0.000000 0.000000 0.000000 0.000000 3.179415 -1.485288 0.392396 0.240438 0.303522 -4.771802 -0.625508 -2.698157 6.390150 -1.929202 0.813958 -0.731693 0.000000 0.000000 0.000000 0.000000 0.000000 0.000000 2.849354 -4.679193 -23.109794 3.949230 -3.540233 0.024353 -4.369007 -1.920854 0.249759 0.000000 0.000000 0.000000 2.083615 1.838675 -21.736465 8.021078 -13.340813 -0.413461 -16.145549 30.130501 9.476223 0.000000 0.000000 0.000000
-11.345810 80.142817 344.452220 -1.617106 3.506731 22.953727 0.392950 0.323252 -22.945050 0.162196 0.307859 -0.037571 2.698806 2.182769 2.475726 0.000000 0.000000 0.000000 2.800544 1.972382 -0.555384 -7.924305 -37.669052 6.676595 28.591360 -8.811199 -51.476168 -16.537062 -3.110413 40.532121 0.000000 0.000000 0.000000 0.000000 0.000000 0.000000 3.921011 -1.765295 0.538626 0.160666 0.271542 -6.034926 -0.885592 -3.349139 7.709536 -1.682304 0.602222 -0.783562 0.000000 0.000000 0.000000 0.000000 0.000000 0.000000 3.241265 -5.880210 -23.007003 5.443439 -4.344716 0.042895 -5.866308 -1.884698 0.107233 0.000000 0.000000 0.000000 2.764145 3.845565 -21.008964 9.600085 -17.877700 -0.369695 -21.545597 36.696072 13.884637 0.000000 0.000000 0.000000
-13.065928 80.139279 343.623792 -1.648196 4.179452 22.872720 0.442902 0.382634 -22.849789 0.161174 0.353154 -0.035626 2.720388 2.745731 2.970409 0.000000 0.000000 0.000000 3.133316 2.166311 -0.635656 -9.146882 -44.904089 6.415789 29.169046 -12.006948 -52.787879 -9.621007 -5.053249 41.141319 0.000000 0.000000 0.000000 0.000000 0.000000 0.000000 4.507501 -1.936026 0.679044 -0.001811 0.187789 -7.151882 -1.187771 -3.901974 8.643049 -0.992845 0.143280 -0.749900 0.000000 0.000000 0.000000 0.000000 0.000000 0.000000 3.357894 -6.909877 -22.888849 6.970861 -4.936065 0.041908 -7.294052 -1.658228 -0.182116 0.000000 0.000000 0.000000 3.413227 6.595782 -20.177746 10.803384 -22.642992 -0.322416 -26.936659 41.648054 18.700174 0.000000 0.000000 0.000000
-14.616994 80.138961 343.100633 -1.446795 4.638951 22.903645 0.482544 0.503681 -22.872962 0.123933 0.428819 -0.029787 2.258004 3.499778 3.455672 0.000000 0.000000 0.000000 3.141681 3.743751 -1.001364 -10.353066 -54.196488 4.453109 30.550871 -19.501135 -43.035900 2.881782 -9.259325 35.601313 0.000000 0.000000 0.000000 0.000000 0.000000 0.000000 4.788797 -1.731953 0.862781 -0.497635 0.010629 -8.219475 -1.020219 -4.937720 10.296209 0.415955 -0.280477 -0.766528 0.000000 0.000000 0.000000 0.000000 0.000000 0.000000 2.898006 -7.175204 -22.916917 9.300710 -5.593334 -0.002611 -8.924642 -0.925307 -1.008318 0.000000 0.000000 0.000000 4.085478 11.574229 -19.166348 12.566883 -29.566461 -0.104304 -39.263322 47.734397 30.487573 0.000000 0.000000 0.000000
-16.151950 80.190836 342.459061 -1.279080 5.223386 22.796208 0.510684 0.501158 -22.755320 0.110519 0.428223 -0.021780 2.012100 4.135938 3.872929 0.000000 0.000000 0.000000 3.744040 4.267830 -1.058808 -13.121101 -61.574746 1.704590 34.221293 -23.495669 -29.798695 7.296604 -19.329903 24.495809 0.000000 0.000000 0.000000 0.000000 0.000000 0.000000 5.185750 -1.576582 1.000808 -0.858460 -0.335728 -9.039197 -1.939535 -5.249588 9.977390 2.744592 -1.478788 -0.276360 0.000000 0.000000 0.000000 0.000000 0.000000 0.000000 2.617210 -8.036170 -22.797237 10.824491 -5.724296 -0.077271 -10.291883 0.107893 -1.893581 0.000000 0.000000 0.000000 4.936032 16.512196 -18.062341 13.431833 -35.862474 0.003140 -45.379592 48.656308 36.495797 0.000000 0.000000 0.000000
